<?xml version="1.0" encoding="utf-8"?>
<!-- Generator: Adobe Illustrator 25.1.0, SVG Export Plug-In . SVG Version: 6.00 Build 0)  -->
<svg version="1.1" id="Layer_1" xmlns="http://www.w3.org/2000/svg" xmlns:xlink="http://www.w3.org/1999/xlink" x="0px" y="0px"
	 width="1024px" height="1024px" viewBox="0 0 1024 1024" style="enable-background:new 0 0 1024 1024;" xml:space="preserve">
<style type="text/css">
	.st0{fill:#010101;}
	.st1{fill:#FFFFFF;}
	.st2{fill:#9EAF56;}
	.st3{fill:#62891B;}
	.st4{fill:#222222;stroke:#222222;stroke-miterlimit:10;}
	.st5{fill:#003CA5;}
	.st6{fill:#F8D000;}
	.st7{fill:#E86851;}
	.st8{fill:#0082CC;}
</style>
<path class="st0" d="M156.6,29.2c4.8,0,9.7,0,14.5,0c0,4.3,0,8.6,0,12.9c1.2,0,2.4,0,3.6,0c0-4.3,0-8.6,0-12.9c4.8,0,9.7,0,14.5,0
	c0,4.8,0,9.7,0,14.5l-2.1,0c3.1,20.5,6.1,40.9,9.2,61.4c0-21,0-42,0-63c10,0.2,20.2-0.5,30.1,0.7c5.6,0.7,9.9,4.7,11.4,10
	c1.4,5.3,1.4,11.3,0.5,16.7c-0.4,3-2.1,4.9-4.2,6.9c1.7,1.7,3.5,3.5,4.2,5.8c0.6,2.5,0.6,5.2,0.7,7.8c0,7.6,0,15.2,0,22.8
	c-6.6,0-13.2,0-19.9,0c0-8.6,0-17.2,0-25.8c0-1.9-0.4-3.3-1.3-5c-0.7,10.2-0.1,20.5-0.3,30.7c-13.9,0-27.8,0-41.7,0
	c-0.3-4-0.6-8-0.9-12c-1,0-2,0-2.9,0c-0.3,4-0.7,8-1,12c-7.3,0-14.5,0-21.8,0c2.9-22.7,6.1-45.4,8.9-68.2c-0.7-0.7-1.2-1.5-1.4-2.3
	C156.5,38,156.7,33.6,156.6,29.2z"/>
<path class="st1" d="M160.4,33c2.3,0,4.7,0,7,0c0,2.3,0,4.7,0,7c-2.3,0-4.7,0-7,0C160.4,37.7,160.4,35.3,160.4,33z"/>
<path class="st1" d="M178.5,33c2.3,0,4.7,0,7,0c0,2.3,0,4.7,0,7c-2.3,0-4.7,0-7,0C178.5,37.7,178.5,35.3,178.5,33z"/>
<path class="st0" d="M487,41c6.2,0.8,12.9,4.4,15.7,10.2c2.5,5.7,2.1,13.1,2.2,19.2c-7,0-14.1,0-21.1,0c-0.4-4.8,1-11-1.3-15.4
	c-1,5.9-0.4,12.1-0.5,18c7.7,0,15.3,0,23,0c0,13.2,0,26.4,0,39.6c-4.8,0-9.5,0-14.3,0c-0.2-0.8-0.5-1.7-0.7-2.5
	c-8.1,7-20.9,3.9-26.2-4.9c-2.5-4.2-2.8-8.6-2.9-13.3c0-8.3,0-16.7,0-25c0-4.5,0.1-9.2,1.1-13.5c1.1-4.2,4.3-7.5,7.9-9.7
	C474.9,40.6,481.1,40.3,487,41z"/>
<path class="st0" d="M18.6,42.1c9.1,0.1,18.3-0.3,27.4,0.4c5.1,0.4,10.2,1.8,13.4,6c3.3,4.2,2.9,9.6,3.2,14.7c0,10.5,0.1,21,0,31.4
	c-0.2,4.3-0.1,9.5-2.9,13c-3.1,3.9-8,4.7-12.6,4.9c-9.5,0.3-18.9,0.1-28.4,0.2C18.6,89.2,18.6,65.7,18.6,42.1z"/>
<path class="st0" d="M65.4,42.1c24.3,0,48.6,0,72.9,0c0,5.7,0,11.4,0,17.1c-3.5,0-6.9,0-10.4,0c0,17.8,0,35.7,0,53.5
	c-7,0-14.1,0-21.1,0c0-17.8,0-35.7,0-53.5c-6.8,0-13.5,0-20.2,0c0,3,0,5.9,0,8.9c3.6,0,7.2,0,10.9,0c0,5.5,0,11,0,16.5
	c-3.6,0-7.2,0-10.9,0c0,3.7,0,7.3,0,11c4.2,0,8.5,0,12.8,0c0,5.7,0,11.4,0,17.1c-11.3,0-22.6,0-33.9,0
	C65.4,89.2,65.4,65.7,65.4,42.1z"/>
<path class="st0" d="M256.9,42.1c11.1,0,22.2,0,33.3,0c0.1,5.7,0,11.4-0.1,17.1c-4,0-8,0-12,0c0,3,0,5.9,0,8.9c3.5,0,7.1,0,10.6,0
	c0,5.5,0,11,0,16.5c-3.6,0-7.1,0-10.6,0c0,9.4,0,18.8,0,28.1c-7,0-14.1,0-21.1,0C256.9,89.2,256.9,65.7,256.9,42.1z"/>
<path class="st0" d="M290.8,42.1c9.9,0.2,19.9-0.5,29.7,0.7c5.6,0.6,10.1,4.7,11.6,10c1.5,5.4,1.5,11.5,0.5,17
	c-0.4,2.9-2.1,4.7-4.2,6.6c1.8,1.8,3.5,3.5,4.2,6c0.6,2.4,0.5,5.1,0.6,7.5c0,7.6,0,15.2,0,22.8c-6.6,0-13.2,0-19.9,0
	c0-8.3,0-16.5,0-24.8c0-2.2-0.3-4-1.4-6c-0.6,10.2-0.1,20.5-0.3,30.7c-7,0-14.1,0-21.1,0C290.6,89.2,290.6,65.7,290.8,42.1z"/>
<path class="st0" d="M336.3,42.2c10.9-0.2,21.8,0,32.7-0.1c0,5.7,0,11.4,0,17.1c-3.9,0-7.8,0-11.6,0c0,3,0,5.9,0,8.9
	c3.6,0,7.2,0,10.9,0c0,5.5,0,11,0,16.5c-3.6,0-7.2,0-10.9,0c0,3.7,0,7.3,0,11c4.2,0,8.5,0,12.8,0c0,5.7,0,11.4,0,17.1
	c-11.3,0-22.6,0-33.9,0C336.3,89.3,336.1,65.7,336.3,42.2z"/>
<path class="st0" d="M371.4,42.1c9.5,0.2,19.1-0.4,28.6,0.5c4.8,0.5,9.4,2,12.4,6.1c3.2,4.1,2.9,9.3,3,14.3c0,10.7,0,21.3,0,32
	c-0.2,4.8-0.1,10-3.8,13.6c-3.7,3.6-8.7,3.8-13.6,4.1c-8.9,0.2-17.8,0-26.7,0.1C371.4,89.2,371.4,65.7,371.4,42.1z"/>
<path class="st0" d="M423.4,42.2c9.4-0.3,18.9,0,28.3-0.1c3.5,23.5,7.1,47.1,10.6,70.6c-7.2,0-14.4,0-21.6,0c-0.3-4-0.6-8-0.9-12
	l-2.9,0c-0.3,4-0.7,8-1,12c-7.3,0-14.5,0-21.8,0C417.1,89.3,420.1,65.6,423.4,42.2z"/>
<path class="st0" d="M522.8,42.1c8.6,0,17.3,0,25.9,0c0.9,6.4,1.9,12.8,2.8,19.1c0.8-6.4,1.6-12.8,2.4-19.1c8.7,0,17.5,0,26.2,0
	c0,23.5,0,47.1,0,70.6c-6.3,0-12.7,0-19,0c0-6.1,0.1-12.1-0.1-18.2c-0.9,6-1.7,12.1-2.5,18.2c-4.6,0-9.3,0-13.9,0
	c-1-6.6-1.8-13.1-2.9-19.7c-0.1,6.6,0,13.1,0,19.7c-6.3,0-12.7,0-19,0C522.8,89.2,522.8,65.7,522.8,42.1z"/>
<path class="st0" d="M583.5,42.1c7,0,14.1,0,21.1,0c0,23.5,0,47.1,0,70.6c-7,0-14.1,0-21.1,0C583.5,89.2,583.5,65.7,583.5,42.1z"/>
<path class="st0" d="M607.9,42.1c6,0,11.9,0,17.9,0c2.1,6.7,4.3,13.4,6.5,20c0-6.7,0-13.3,0-20c6.1,0,12.2,0,18.2,0
	c0,20.9,0,41.8,0,62.6c3-20.9,5.6-41.8,8.4-62.6c9.5,0,18.9,0,28.4,0c3.5,23.5,7.1,47.1,10.6,70.6c-7.2,0-14.4,0-21.7,0
	c-0.3-4-0.6-8-0.9-12c-1,0-2,0-2.9,0c-0.3,4-0.7,8-1,12c-13.1,0-26.3,0-39.4,0c-1.9-6.4-3.8-12.8-5.7-19.2c0,6.4,0,12.8,0,19.2
	c-6.1,0-12.2,0-18.3,0C607.9,89.2,607.9,65.7,607.9,42.1z"/>
<path class="st0" d="M711.6,42.1c7.8,0,15.6-0.1,23.4,0c5.4,0.3,11,0.8,14.9,4.9c4.8,4.8,5.1,13.4,4.5,19.7c-0.3,3.6-1.9,5.8-4.6,8
	c4.7,3.2,6,7.8,6,13.2c-0.1,5.9,0.7,13.5-2.1,18.8c-2.3,4.1-6.3,5.2-10.7,5.6c-10.4,0.7-21,0.3-31.4,0.4
	C711.6,89.2,711.6,65.7,711.6,42.1z"/>
<path class="st0" d="M758.4,42.1c10.9,0,21.8,0,32.8,0c0,5.7,0,11.4,0,17.1c-3.9,0-7.7,0-11.6,0c0,3,0,5.9,0,8.9c3.6,0,7.2,0,10.9,0
	c0,5.5,0,11,0,16.5c-3.6,0-7.2,0-10.9,0c0,3.7,0,7.3,0,11c4.2,0,8.5,0,12.8,0c0,5.7,0,11.4,0,17.1c-11.3,0-22.6,0-33.9,0
	C758.4,89.2,758.4,65.7,758.4,42.1z"/>
<path class="st0" d="M819.3,42.2c6.7-0.3,13.5,0,20.2-0.1c-3.4,10.7-7.3,21.3-10.3,32c2.4,9.9,5.8,19.6,8.6,29.4
	c2.7-20.5,5.4-41,8.1-61.5c9.5,0,18.9,0,28.4,0c3.2,21.2,6.4,42.4,9.5,63.6c0.1-21.2,0-42.4,0-63.6c5.9,0,11.9,0,17.8,0
	c2.1,6.6,4.3,13.2,6.4,19.8c0-6.6,0-13.2,0-19.8c6.1,0,12.2,0,18.4,0c-0.2,23.5-0.1,47.1-0.1,70.6c-6.2,0-12.4,0-18.6,0
	c-1.9-6.5-3.8-12.9-5.8-19.4c0,6.5,0,12.9,0,19.4c-12.9,0-25.8,0-38.8,0c-0.3-4-0.6-8-0.9-12h-2.9c-0.3,4-0.6,8-1,12
	c-13.2,0-26.5,0-39.7,0c-1.3-5-2.5-10-3.8-15c0,5,0,10,0,15c-7,0-14.1,0-21.1,0c0-23.5,0-47.1,0-70.6c7,0,14.1,0,21.1,0
	c0,4.9,0,9.9,0,14.8C816.3,52,817.5,47,819.3,42.2z"/>
<path class="st0" d="M926.6,42.1c13.9,0,27.8,0,41.6,0c0,5,0,10.1,0.1,15.2c0.6-5.1,1.2-10.1,1.9-15.2c9.5,0,18.9,0,28.4,0
	c3.5,23.5,7.1,47.1,10.6,70.6c-7.2,0-14.4,0-21.6,0c-0.3-4-0.6-8-0.9-12c-1,0-2,0-2.9,0c-0.3,4-0.6,8-1,12c-7.3,0-14.5,0-21.8,0
	c2.4-17.8,4.7-35.7,7.1-53.5c-3.4,0-6.8,0-10.1,0c0,17.8,0,35.7,0,53.5c-7,0-14.1,0-21.1,0c0-17.8,0-35.7,0-53.5
	c-3.4,0-6.8,0-10.2,0C926.6,53.5,926.6,47.8,926.6,42.1z"/>
<path class="st1" d="M483,44.5c6.1,0,12.5,2.3,15.8,7.7c2.3,4.2,2,10,2.3,14.6c-4.6,0-9.1,0-13.6,0c-0.1-3.8,0.1-7.8-0.6-11.6
	c-0.7-3.7-6.4-4.1-8-1c-0.9,2.1-0.8,4.7-0.8,6.9c0,11.3,0,22.7,0,34c0.1,2,0,4.8,1.5,6.4c2.4,2.4,6.8,1.4,7.7-1.9
	c1.2-5.2,0.6-10.9,0.7-16.2c-1.2,0-2.3,0-3.5,0c0-2.1,0-4.2,0-6.4c5.5,0,11.1,0,16.6,0c0,10.7,0,21.4,0,32.1c-2.6,0-5.2,0-7.8,0
	c-0.8-2.5-1.7-5-2.5-7.5c-1.8,2.9-3.3,6.5-6.6,7.9c-6.9,2.9-15.9-1.2-18.5-8.2c-1.4-3.7-1.3-8.3-1.3-12.2c0.1-8.8-0.1-17.7,0.1-26.6
	c0.3-4.4,0.2-9.1,3.5-12.4C471.9,45.7,477.4,44.2,483,44.5z"/>
<path class="st1" d="M22.4,45.9c7.9,0.1,15.8-0.3,23.6,0.4c3.8,0.4,7.8,1.2,10.3,4.4c2.6,3.2,2.3,7.5,2.5,11.3c0.1,10.3,0,20.7,0,31
	c-0.2,3.6,0.1,7.9-1.5,11.2c-1.8,3.4-5.9,4.2-9.3,4.5c-8.5,0.5-17.1,0.2-25.6,0.3C22.4,88,22.4,66.9,22.4,45.9z"/>
<path class="st1" d="M69.1,45.9c8.4,0,16.8,0,25.2,0c0,3.2,0,6.4,0,9.6c-3.9,0-7.8,0-11.6,0c0,5.5,0,10.9,0,16.4c3.6,0,7.2,0,10.9,0
	c0,3,0,6,0,9c-3.6,0-7.2,0-10.9,0c0,6.2,0,12.3,0,18.5c4.2,0,8.5,0,12.8,0c0,3.2,0,6.4,0,9.6c-8.8,0-17.6,0-26.4,0
	C69.1,88,69.1,66.9,69.1,45.9z"/>
<path class="st1" d="M100.2,45.9c11.4,0,22.8,0,34.2,0c0,3.2,0,6.4,0,9.6c-3.5,0-6.9,0-10.4,0c0,17.8,0,35.7,0,53.5
	c-4.5,0-9.1,0-13.6,0c0-17.8,0-35.7,0-53.5c-3.4,0-6.8,0-10.2,0C100.2,52.3,100.2,49.1,100.2,45.9z"/>
<path class="st1" d="M161.9,45.9c7.3,0,14.5,0,21.8,0c3.2,21,6.3,42.1,9.5,63.1c-4.6,0-9.2,0-13.8,0c-0.3-4-0.6-8-0.9-12
	c-3.3,0-6.6,0-9.9,0c-0.3,4-0.6,8-1,12c-4.7,0-9.4,0-14,0C156.3,88,159.1,66.9,161.9,45.9z"/>
<path class="st1" d="M200.1,45.9c8.5,0.1,17.2-0.5,25.7,0.7c4.7,0.6,7.9,4.1,8.8,8.7c0.9,4.9,1.1,10.5-0.4,15.3
	c-0.9,2.8-4.5,3.1-7,3.8c-0.1,1.1-0.2,2.2-0.3,3.2c2.3,1,5.2,1.7,6.6,3.8c1.7,2.1,1.5,5.1,1.6,7.7c0,6.7,0,13.3,0,20
	c-4.1,0-8.2,0-12.4,0c0-7.3,0-14.7,0-22c-0.1-2-0.1-4.8-1.4-6.5c-1.8-1.9-5.3-1.5-7.7-1.8c0,10.1,0,20.2,0,30.3c-4.5,0-9.1,0-13.6,0
	C200.1,88,200.1,66.9,200.1,45.9z"/>
<path class="st1" d="M260.6,45.9c8.5,0,17.1,0,25.6,0c0,3.2,0,6.4,0,9.6c-4,0-8,0-12,0c0,5.5,0,10.9,0,16.4c3.5,0,7.1,0,10.6,0
	c0,3,0,6,0,9c-3.5,0-7.1,0-10.6,0c0,9.4,0,18.8,0,28.1c-4.5,0-9.1,0-13.6,0C260.6,88,260.6,66.9,260.6,45.9z"/>
<path class="st1" d="M294.4,45.9c8.4,0.1,17.1-0.4,25.5,0.6c4.3,0.5,7.6,3.5,8.8,7.7c1.2,5.2,1.4,11.2-0.1,16.4
	c-1,2.8-4.5,3-6.9,3.8c-0.1,1.1-0.2,2.2-0.2,3.3c2.2,0.9,5.1,1.6,6.5,3.6c1.8,2.2,1.5,5.1,1.7,7.8c0.1,6.7,0,13.3,0,20
	c-4.1,0-8.2,0-12.4,0c0-7.3,0.1-14.7,0-22c-0.2-2.6,0-5.9-2.6-7.3c-1.9-0.9-4.4-0.7-6.5-0.9c0,10.1,0,20.2,0,30.2
	c-4.5,0-9.1,0-13.6,0C294.4,88,294.4,66.9,294.4,45.9z"/>
<path class="st1" d="M340,45.9c8.4,0,16.8,0,25.2,0c0,3.2,0,6.4,0,9.6c-3.9,0-7.8,0-11.6,0c0,5.5,0,10.9,0,16.4c3.6,0,7.2,0,10.9,0
	c0,3,0,6,0,9c-3.6,0-7.2,0-10.9,0c0,6.2,0,12.3,0,18.5c4.2,0,8.5,0,12.7,0c0,3.2,0,6.4,0,9.6c-8.8,0-17.6,0-26.4,0
	C340,88,340,66.9,340,45.9z"/>
<path class="st1" d="M375.1,45.9c7.6,0.1,15.3-0.3,22.9,0.3c3.9,0.4,8,1,10.7,4.1c2.9,3.2,2.7,7.8,2.9,11.8c0,11.2,0.1,22.4,0,33.6
	c-0.2,3.1-0.1,7.2-2.2,9.7c-2.6,3-6.8,3.3-10.4,3.5c-8,0.3-15.9,0.1-23.9,0.1C375.1,88,375.1,66.9,375.1,45.9z"/>
<path class="st1" d="M426.6,45.9c7.3,0,14.5,0,21.8,0c3.1,21,6.3,42.1,9.5,63.1c-4.6,0-9.2,0-13.8,0c-0.3-4-0.6-8-0.9-12
	c-3.3,0-6.6,0-9.9,0c-0.3,4-0.6,8-1,12c-4.7,0-9.4,0-14,0C421.1,88,423.8,66.9,426.6,45.9z"/>
<path class="st1" d="M526.5,45.9c6.3,0,12.6,0,18.9,0c1.5,9.9,2.9,19.8,4.4,29.6c1.2,0,2.5,0,3.7,0c1.3-9.9,2.5-19.8,3.8-29.6
	c6.4,0,12.8,0,19.2,0c0,21,0,42.1,0,63.1c-3.8,0-7.7,0-11.5,0c0-14.5,0-28.9,0-43.4c-1.2-0.1-2.5-0.2-3.8-0.3
	c-2,14.6-3.9,29.1-5.9,43.7c-2.4,0-4.9,0-7.3,0c-2.1-14.2-4.1-28.4-6.1-42.7c-1.2,0.1-2.5,0.2-3.7,0.3c0.1,14.1-0.1,28.3-0.1,42.4
	c-3.8,0-7.7,0-11.5,0C526.5,88,526.5,66.9,526.5,45.9z"/>
<path class="st1" d="M587.2,45.9c4.5,0,9.1,0,13.6,0c0,21,0,42.1,0,63.1c-4.5,0-9.1,0-13.6,0C587.2,88,587.2,66.9,587.2,45.9z"/>
<path class="st1" d="M611.6,45.9c3.8,0,7.6,0,11.4,0c3.1,9.6,6.2,19.2,9.3,28.8c1.2-0.2,2.4-0.4,3.7-0.6c0-9.4,0-18.8,0-28.2
	c3.6,0,7.2,0,10.8,0c0,21,0,42.1,0,63.1c-4,0-8.1,0-12.1,0c-2.9-9.7-5.7-19.4-8.6-29.2c-1.2,0.2-2.4,0.3-3.7,0.5
	c0,9.6,0,19.1,0,28.7c-3.6,0-7.2,0-10.7,0C611.6,88,611.6,66.9,611.6,45.9z"/>
<path class="st1" d="M662.2,45.9c7.3,0,14.5,0,21.8,0c3.2,21,6.3,42.1,9.5,63.1c-4.6,0-9.2,0-13.8,0c-0.3-4-0.6-8-0.9-12
	c-3.3,0-6.6,0-9.9,0c-0.3,4-0.7,8-1,12c-4.7,0-9.4,0-14,0C656.6,88,659.3,66.9,662.2,45.9z"/>
<path class="st1" d="M715.4,45.9c8.2,0.2,16.5-0.5,24.6,0.5c4.3,0.5,8,2.9,9.6,7c1.5,4.3,1.7,9.9,0.9,14.4c-0.7,3.6-4.3,4.1-7.1,5.3
	c0,1.1,0,2.2,0,3.3c2.2,0.9,5.2,1.7,6.8,3.6c1.7,2.2,2,5.3,2.1,8c0.1,4,0.2,8.1-0.2,12.1c-0.3,2.5-0.9,5.2-3.1,6.8
	c-2.1,1.6-5.3,1.7-7.8,1.9c-8.5,0.4-17.1,0.2-25.6,0.3C715.4,88,715.4,66.9,715.4,45.9z"/>
<path class="st1" d="M762.1,45.9c8.4,0,16.8,0,25.2,0c0,3.2,0,6.4,0,9.6c-3.9,0-7.8,0-11.6,0c0,5.5,0,10.9,0,16.4
	c3.6,0,7.2,0,10.9,0c0,3,0,6,0,9c-3.6,0-7.2,0-10.9,0c0,6.2,0,12.3,0,18.5c4.2,0,8.5,0,12.8,0c0,3.2,0,6.4,0,9.6
	c-8.8,0-17.6,0-26.4,0C762.1,88,762.1,66.9,762.1,45.9z"/>
<path class="st1" d="M797.4,45.9c4.5,0,9.1,0,13.6,0c0,8,0,16.1,0,24.1c1.2,0.2,2.4,0.4,3.6,0.6c2.5-8.2,4.9-16.5,7.4-24.7
	c4.1,0,8.2,0,12.2,0c-3,9.4-6.4,18.7-9.1,28.2c3,11.7,6.9,23.3,10.2,34.9c-4.6,0-9.2,0-13.9,0c-2.2-9.1-4.6-18.2-6.9-27.3
	c-1.2,0.1-2.4,0.3-3.6,0.4c0,9,0,18,0,26.9c-4.5,0-9.1,0-13.6,0C797.4,88,797.4,66.9,797.4,45.9z"/>
<path class="st1" d="M849.1,45.9c7.3,0,14.5,0,21.8,0c3.2,21,6.3,42.1,9.5,63.1c-4.6,0-9.2,0-13.8,0c-0.3-4-0.6-8-0.9-12
	c-3.3,0-6.6,0-9.9,0c-0.3,4-0.7,8-1,12c-4.7,0-9.4,0-14,0C843.6,88,846.3,66.9,849.1,45.9z"/>
<path class="st1" d="M887.4,45.9c3.8,0,7.6,0,11.5,0c3.1,9.6,6.2,19.2,9.3,28.8c1.2-0.2,2.4-0.4,3.6-0.6c0-9.4,0-18.8,0-28.2
	c3.6,0,7.2,0,10.8,0c0,21,0,42.1,0,63.1c-4,0-8,0-12,0c-2.9-9.7-5.8-19.4-8.6-29.2c-1.2,0.2-2.4,0.3-3.6,0.5c0,9.6,0,19.1,0,28.7
	c-3.6,0-7.2,0-10.9,0C887.4,88,887.4,66.9,887.4,45.9z"/>
<path class="st1" d="M930.2,45.9c11.4,0,22.8,0,34.2,0c0,3.2,0,6.4,0,9.6c-3.5,0-6.9,0-10.4,0c0,17.8,0,35.7,0,53.5
	c-4.5,0-9.1,0-13.6,0c0-17.8,0-35.7,0-53.5c-3.4,0-6.8,0-10.2,0C930.2,52.3,930.2,49.1,930.2,45.9z"/>
<path class="st1" d="M973.6,45.9c7.3-0.1,14.5,0,21.8-0.1c3.2,21,6.3,42.1,9.5,63.1c-4.6,0-9.2,0-13.8,0c-0.3-4-0.6-8-1-12
	c-3.3,0-6.6,0-9.9,0c-0.3,4-0.7,8-1,12c-4.7,0-9.4,0-14,0C968,88,970.8,66.9,973.6,45.9z"/>
<path class="st0" d="M36,53.5c2.2,0.2,5.4-0.1,7.2,1.2c2.1,1.6,1.8,4.9,2,7.2c0,9.7,0,19.3,0,29c-0.2,2.5,0,5.8-1.3,8
	c-1.6,2.3-5.5,2-7.9,2.3C36,85.4,36,69.5,36,53.5z"/>
<path class="st0" d="M213.8,53.5c3.1,0.3,6.9-0.3,8.5,3c1.1,3.7,0.8,8.3,0.2,12.1c-0.8,4.1-5.6,3.3-8.7,3.8
	C213.8,66.1,213.8,59.8,213.8,53.5z"/>
<path class="st0" d="M308,53.5c3,0.3,6.9-0.3,8.4,3c1.1,3.8,0.9,8.5,0.2,12.3c-0.9,3.9-5.6,3.1-8.6,3.6C308,66.1,308,59.8,308,53.5z
	"/>
<path class="st0" d="M388.8,53.5c2.3,0.2,5.5-0.2,7.4,1.3c1.8,1.5,1.7,4,1.8,6.1c0,10,0,20,0,30c-0.1,2.5,0,5.5-1.1,7.8
	c-1.5,2.6-5.5,2.2-8.1,2.6C388.7,85.4,388.8,69.5,388.8,53.5z"/>
<path class="st0" d="M729,53.4c2.2,0.2,4.7,0.1,6.8,0.9c2.6,1.5,2.7,5,2.8,7.7c-0.1,2.6,0.1,5.9-1.2,8.3c-1.6,2.4-5.9,1.7-8.4,2.1
	C729,66,729,59.7,729,53.4z"/>
<path class="st1" d="M217.8,56.8c0.7,1.1,1.3,2,1.3,3.3c0.1,3.2,0.5,6.1-1.3,8.9C217.4,65,217.3,60.9,217.8,56.8z"/>
<path class="st1" d="M312,69c-0.4-4.1-0.4-8.2,0-12.2C314.1,59.9,314,65.9,312,69z"/>
<path class="st1" d="M40,56.7c1.1,1.8,1.5,3.2,1.5,5.3c0,9,0,18,0,27c-0.1,3.2,0.2,6.1-1.5,8.9c-0.5-6.6-0.1-13.3-0.2-19.9
	C39.9,70.9,39.5,63.8,40,56.7z"/>
<path class="st0" d="M171.7,58.7c1.2-0.2,2.4-0.3,3.6-0.4c0.9,10.2,1.8,20.4,2.9,30.5c-3.4,0-6.7,0-10.1,0
	C169.1,78.8,170.1,68.7,171.7,58.7z"/>
<path class="st1" d="M392.9,56.7c1.1,1.8,1.4,3.2,1.4,5.3c0,9,0,18,0,27c-0.1,3.2,0.3,6.1-1.4,9c-0.6-5.3-0.2-10.7-0.3-16
	C392.7,73.6,392.1,65.1,392.9,56.7z"/>
<path class="st0" d="M436.5,58.7c1.2-0.2,2.4-0.2,3.6-0.3c0.9,10.2,1.8,20.3,2.9,30.5c-3.4,0-6.7,0-10.1,0
	C433.9,78.8,434.9,68.7,436.5,58.7z"/>
<path class="st0" d="M671.9,58.5c1.2,0,2.5,0,3.7,0c0.9,10.1,1.8,20.3,2.8,30.4c-3.4,0-6.7,0-10.1,0
	C669.3,78.7,670.6,68.6,671.9,58.5z"/>
<path class="st1" d="M733,56.6c0.9,1.4,1.9,2.5,1.8,4.3c-0.1,3,0.6,5.9-1.8,8.2C732.6,64.9,732.7,60.8,733,56.6z"/>
<path class="st0" d="M858.9,58.5c1.2,0,2.5,0,3.7,0c0.8,10.1,1.8,20.3,2.8,30.4c-3.4,0-6.7,0-10.1,0
	C856.3,78.7,857.6,68.6,858.9,58.5z"/>
<path class="st0" d="M983.5,58.7c1.2-0.2,2.4-0.3,3.6-0.4c0.9,10.2,1.8,20.4,2.9,30.5c-3.4,0-6.7,0-10.1,0
	C980.8,78.8,981.9,68.7,983.5,58.7z"/>
<path class="st1" d="M173.2,76.5c0.3,2.9,0.6,5.7,0.9,8.6l-1.8,0C172.5,82.3,172.8,79.4,173.2,76.5z"/>
<path class="st1" d="M437.9,76.6c0.3,2.9,0.6,5.7,0.9,8.6l-1.8,0C437.3,82.3,437.6,79.4,437.9,76.6z"/>
<path class="st1" d="M673.5,76.5c0.3,2.8,0.5,5.7,0.8,8.5l-1.8,0.2C672.8,82.3,673.2,79.4,673.5,76.5z"/>
<path class="st1" d="M860.5,76.4c0.3,2.9,0.5,5.8,0.8,8.6l-1.8,0.2C859.8,82.3,860.1,79.3,860.5,76.4z"/>
<path class="st1" d="M984.9,76.6c0.3,2.8,0.6,5.7,0.9,8.5H984C984.3,82.3,984.6,79.4,984.9,76.6z"/>
<path class="st0" d="M729,78.6c2.4,0.3,5.8,0.1,7.8,1.6c1.9,1.7,1.5,5.5,1.7,7.8c-0.1,3.4,0.4,7.5-0.9,10.6
	c-1.4,2.8-5.9,2.4-8.6,2.8C729,93.8,729,86.2,729,78.6z"/>
<path class="st1" d="M732.9,82.2c0.7,0.6,1.3,1.3,1.6,2c0.4,3.7,0.4,8,0,11.7c-0.5,0.7-1,1.4-1.6,2.1
	C732.7,92.7,732.6,87.4,732.9,82.2z"/>
<path class="st1" d="M481.9,87h2.4c0,3,0.1,6.1-0.2,9.1c0,1.8-0.6,2.3-1.7,3.5C481.7,95.3,481.9,91.2,481.9,87z"/>
<path class="st0" d="M756.9,171.2c10.2,14.8,17.2,31.6,19.5,49.5c7.6,3.5,14.4,8.2,21.7,12.2c10.1,5.6,20.2,11.1,30.3,16.7
	c12.8,7.4,25.3,15.9,33.9,28.2c2.4,3.3,3.2,7.2,5.2,10.7c1.9,2.8,6.2,4.6,7.9,8c1.7,3.5,1,7.5-1.2,10.6c-3.2,4.6-8.8,7.9-13.6,10.6
	c-12.1,6.7-25.1,10.5-38.6,13.5c-11,2.3-21.8,4.5-33,5.6c-14.7,1.5-29.2,1.6-44,1.3c-20.3-0.4-41.5-2.2-61.1-8.1
	c-18.1-5.3-35.5-12.9-52-22.1c-7.6-4.2-14.4-9.8-22.1-13.9c-9.3-5.1-21-6.5-30.9-2c-4.6,2-8.3,5.4-11.4,9.4
	c4.8-2.3,9.1-5.2,14.1-6.6c7-2.1,14.6-2.1,21.3,1.2c9.1,4.5,15.5,12.5,19.1,21.9c7.6,19.1,14.7,37.1,28.2,52.9
	c10.4-2.8,20.7-5.4,31.6-5.7c10.4-0.3,21,0.9,30.4,5.6c5.5,2.6,10.1,6.3,14.9,10.1c5.5-2.3,10.7-4.6,16.6-5.9
	c11.7-2.6,24.3-1.6,34.9,4.4c8.8,4.9,15.2,12,21.6,19.7c8.7-2,17.3-5.2,25.5-8.7c4.7-2,9.9-5.1,15.1-4.8c5.2,0.2,10.9,5.1,10.4,10.6
	c-0.2,4.5-3.4,8.8-6.2,12.2c-6.7,7.6-14.3,14.4-22.2,20.8c-2.5,2-5.3,3.8-7.5,6.2c2.4,2,5.2,3.6,7.8,5.5c11.2,7.7,22,15.9,32.2,24.8
	c11.1,9.6,22.3,20.1,31.2,31.8c4.5,5.8,9.4,11.8,12.7,18.2c2.1,4,2.9,8.3,4.7,12.3c1.3,3.5,6.1,4.9,8.9,7c5.5,4,10.9,8.5,15.2,13.9
	c4.4,5.7,5.8,12.2,6.4,19.2c0.5,6.2,1.2,12.9-0.9,18.8c-1.1,3.1-3.3,5.8-6.8,6.3c-2.2,0.3-3.6-1.1-5.4-2.1c-2.1,2.7-3.7,5.2-7.1,6.3
	c-2.4,0.9-4.6,0.5-7.1,0c-2.8,1.5-5.2,3-8.4,2.6c-2.1-0.2-4-2-5.7-3.2c-3,1.6-5.7,3.2-9.3,2.5c-2.3-0.5-3-2.5-4.2-4.2
	c-2.7,2.1-5.2,3.7-8.8,2.9c-3.2-0.6-4.2-3.9-5.9-6.2c-2-3.1-5.8-5.7-5.9-9.7c-0.2-5.7,5.6-9.3,6.1-14.9c0.7-5.1-1.6-9.7-5.3-13
	c-5.9-5.4-14.2-8.7-20.8-13.2c-8.7-6-17.9-11.1-27.6-15.1c-0.3,1.9-0.7,3.8-1,5.6c4.6,2,9.1,4,13.3,6.7c10,6,18.4,14.9,23.9,25.2
	c3.5,6.8,5,14.3,2.1,21.6c-1.1,2.4-4.2,3.1-6.4,1.8c-7.8-5.4-10.5-13.2-16.2-19.9c-4.8-5.2-10.7-5.1-17.1-6.5c3.1,2.5,6,5.1,8.5,8.2
	c2.9,3.6,5.6,7.7,5.4,12.6c-0.2,4.6-3.6,8.2-6.9,11.1c-3,2.6-6.1,5.7-9.6,7.4c-2.8,1.3-5.4,0.8-8.4,0.6
	c-2.2,16.4-8.4,30.9-15.1,45.9c-3.6,8.1-8.1,15.6-13.2,22.9c-11.2,16.5-24.2,31.6-38.5,45.5c-7.5,7.3-15.8,13.9-24.5,19.8
	c7,4.6,12.5,10.7,19,15.9c10.3,8.5,19.2,18,28.4,27.6c4.3,4.4,9.6,9,12.7,14.3c2.7,4.5,2.6,9.9,2.7,15c-0.1,16.8,1,33.9,6.1,50
	c2.3,7.8,5.6,15.2,8.6,22.7c3,8.2,9.7,15.1,16.6,20.2c6.8,5.1,14.8,6.2,22.7,8.5c12.8,3.6,25.4,4.8,38.5,7c33.6,5.6,68,9,102,11.9
	c11.8,0.9,26.5-0.8,37,5.5c2.8,1.5,4.6,4.7,1.6,7.1c-5.9,3.7-15.1,3-21.6,4.6c-2.7,0.8-5.5,2.3-5.6,5.4c-0.1,5.3,5,9.3,5.2,14.1
	c0.1,2.4-1.4,4.2-3.6,5c-4.7,1.5-10.2,0.5-15,1.4c-1.8,0.4-4.1,1.5-4.4,3.5c-0.5,4.8,3.9,10.3,2.7,15.1c-1.4,3.7-6.1,3.9-9.3,2.9
	c-10.5-3.3-18.2-12.6-28-16.2c-27.2-11.7-54.9-20.4-83.2-28.6c-28.6-8.4-57.2-19.2-87-22.5c-7-0.9-14.8,0-21.5-1.9
	c-3.9-1.1-7.3-3.5-8.9-7.4c-2-5.3-1.4-11.5,1.4-16.4c2.7-4.8,5.7-9.4,9.2-13.7c0.7-1.1,2.1-3,1.3-4.2c-2-3-5.3-5.1-7.8-7.6
	c-5.5-5.5-10.8-11.5-15-18c-5.9-9-10.2-18.7-14.3-28.6c-1.5-3.3-2.2-7.1-3.9-10.2c-0.8-1.3-2-1.3-3.3-1.5
	c-19.3-1.8-37.7-6.2-56.3-11.6c-12.8-3.5-25.2-8.5-37-14.7c-13.6,5.1-27.5,9.2-41.9,11.8c-15.8,2.7-32,1.6-48,1.5
	c-21.7-0.5-42.9-7.2-62.1-17c-14.1-7.2-27.2-15.4-38.7-26.3c-5.8-5.4-12.4-12.7-20-15.2c-8.4,0.8-16.8,5.2-23.6,10
	c-8.8,6.4-16.8,13.9-24.1,21.9c-2.3,2.5-5.5,4.8-7,7.8c-0.4,4.2,1.3,8.5,0.9,12.8c-0.8,17.7-8.9,35.9-16.6,51.8
	c-2.2,4.9-5.3,9.5-7.3,14.5c-1.5,3.9,1.6,6.8,3.5,9.8c4,6,8.4,13.4,7.3,21c-0.5,4.5-2.7,8.7-7.2,10.2c-5.8,1.9-13,0.5-19,0.6
	c-32.8-0.3-65.7,8.2-97.7,14.4c-20.1,3.8-39.8,9-59.5,14.5c-8.2,2.3-14.9,6.5-22.5,9.7c-2.7,1.1-6.2,2.2-9.1,1.5
	c-2.7-0.7-4-3.3-3.6-5.9c0.6-3.6,4.2-6.4,4.8-9.9c-0.6-1.8-2-3.2-3.7-3.7c-3.7-0.9-7.9-0.1-11.6-1.3c-2.9-1-5.4-3.7-4.8-7
	c0.7-3.4,4.1-6.2,5.8-9.2c1.2-2.2,0.8-5.1-1.5-6.3c-5.9-3.1-13.5-1.9-19.3-4.8c-3-1.5-4.3-5.6-1.2-7.9c4.4-2.9,11-2.9,16-3
	c24.4,0.7,48.7,2.1,73.2,1.6c27.5-0.2,55.8-1.4,82.9-6.7c4.1-0.7,7.7-2.4,11.1-4.7c4.5-3.2,9-6.3,13.2-9.8c2.6-2.3,6.2-5.6,6.8-9.3
	c-0.1-4.3-2.9-8.3-3.7-12.5c-3.6-15.5-5.4-31.7-4-47.5c0.6-8.2-5-13.1-5.6-21c-0.4-6.8,0.7-14.1,4-20.1c1.6-2.9,4.6-5.1,5.8-8.1
	c0.7-2.9,0.7-6,1.2-9c1-5.4,3.2-10.8,5.1-15.8c7.6-19.4,17.9-37.1,29.7-54.2c4.4-6,7.5-12.4,13.1-17.5c-2.3-15.7-3-31.5-2.6-47.3
	c0.2-14.2,0.7-28.9,2.9-43c3.2-20.8,6.9-41.7,13.2-61.8c4.3-13.9,10.5-27.5,16.1-41c1.9-4.4,3.3-8.7,6.6-12.2c2.7-2.8,5.5-5.2,7-8.9
	c2.3-5.3,4.5-10.4,7.8-15.2c10.2-16.8,24.1-31.3,39.1-44c20.5-17.2,42.8-31.2,66.3-43.7c13.4-7,25-14.8,40-18
	c0-6.3,0.2-12.5,1.5-18.7c2.7-13.2,9.4-25.5,17.6-36.1c9.5-12.2,23.2-21.5,35.9-30.1c15.8-10.2,34.5-16.8,52.2-22.9
	c2.4-0.7,2.3-2.6,3-4.6c1.8-7.2,4.3-14.2,7.3-21c3-7.2,6.9-13.9,12.9-19.1c7.9-6.9,18.9-10.7,29.3-8.6c8,1.7,14.1,6.1,20.2,11.2
	c4.5-5.2,8.3-10.2,15.3-12C727.7,148.8,747.1,156.2,756.9,171.2z"/>
<path class="st2" d="M751.9,171c10.5,14.5,17.7,31.2,20.2,49c0.1,4.9,5.8,5.5,9,7.8c12.5,7.7,25.4,14.6,38.2,21.8
	c13.9,7.7,28.1,16.2,38,29c2.8,3.4,3.9,7.4,5.8,11.3c1.8,3.8,6.1,5.5,8.3,8.6c1.4,2.9-0.1,5.7-2.1,7.9c-3.9,4.1-9.5,7-14.5,9.6
	c-14.6,7.3-30.1,10.6-45.9,13.7c-17.1,3.4-34.5,4.6-51.9,4.5c-19.2,0.1-38.8-0.7-57.8-4.4c-16.7-3.4-33-9.4-48.4-16.5
	c-9-4.3-18.1-8.9-26.4-14.6c-6.4-4.3-12.4-8.7-19.9-11.1c-9.9-3.2-21.3-2.8-30.4,2.7c-7.2,4.1-12.2,12.2-15.3,19.7
	c1.5,2.5,2.6,0.3,4.4-0.6c5.9-4.5,12.8-8.7,20-10.8c6.5-1.9,13.5-1.7,19.5,1.8c7.2,4.2,12.4,10.8,15.5,18.5
	c5.4,13.5,10.5,26.5,17.9,39.1c7.3,12.3,16.9,23.1,28.3,31.7c16.9,12.8,37.4,20.4,58.4,22.6c25.8,2.7,52.7-2.2,77.6-8.7
	c10.9-2.7,21.4-6.6,31.6-11.3c2.9-1.3,6.6-2.9,9.8-2.2c2.5,0.6,5.4,3.2,5.1,6.1c-0.4,3.4-2.8,6.6-5,9.1c-9.9,11.2-22.1,21.1-34,30
	c-22.4,16.7-46.2,31-70.1,45.6c0.6,1.1,1.3,2.1,1.9,3.2c5.9-3.3,11.5-7,17.5-10.2c-0.5,6.1-1.9,11.9-3.1,17.9
	c-4.5,21.1-10.5,41.6-16.8,62.2c-9.5,4-19.2,6.9-29.6,6.5c-12.6-0.6-25.5-3.9-37.6-7.7c-33.9-10.6-67.2-24.5-100.1-37.9
	c-11.3-4.5-22.3-9.5-33.2-14.8c-2.8-1.4-5.8-2.4-8.9-3.3c-1-0.4-2.7-0.5-2.8-1.9c-1-3.4-1-7.4-2.5-10.6c-1.4-3.2-3.5-5.4-3.2-9.2
	c0.9-34.8-0.6-70.4,3-105c0.5-5.1-0.1-10.2,0.7-15.2c0.7-4.7,1.5-9,0.5-13.7c-0.9-4.4-2.7-8.6-3.5-13.1c-1.6-8.6-1.6-17.5-0.6-26.2
	c1.9-14.7,8.9-27.6,17.9-39.2c8.5-10.8,20.1-18.9,31.3-26.7c16.4-11.7,37-18.5,55.8-25.2c3.1-1.2,3.6-3.8,4.5-6.6
	c2.2-8.6,5.2-16.9,9-24.9c3.2-6.5,7.6-12.4,13.6-16.4c7-4.6,15.7-6.9,24-4.6c8.1,2.3,13.7,7.4,20,12.7c4.5-5.5,8.8-12.3,16.2-14.1
	C726.4,153.3,743,159.1,751.9,171z"/>
<path class="st0" d="M725,171.9c8.4-1.2,17,0.2,24.1,4.9c6.8,4.6,11.2,11.3,14.2,18.9c4.1,10.5,5.9,22.8,3.1,33.8
	c-2,7.7-6.9,14.5-14.4,17.5c-8.6,3.5-19.3,2.4-28.1,0.1c-5.6-1.4-9.5-5.1-12.9-9.5c-1.1,5.2-2.6,10-6.4,13.9
	c-5.5,5.7-14,8.8-21.8,9.9c-10.1,1.4-19.7-1.9-28.2-6.9c-8.4-5-14.7-13.1-16.9-22.7c-1.9-9.2-1.7-19.2,1-28.3
	c1.8-6.4,5.7-11.8,10.4-16.5c5-4.9,10.5-9.6,17.2-11.9c7.5-2.6,15.9-2,22.9,1.8c5.7,3.1,9.8,8,12.7,13.7c1.7-5.3,3.7-10.2,8.2-13.7
	C714,173.8,720,172.6,725,171.9z"/>
<path class="st1" d="M738.5,176.4c7,1.8,12.9,6.3,16.8,12.3c4.5,6.9,7.1,15.2,8.2,23.4c0.9,7.6,0.5,16.2-3.5,23
	c-2.7,4.8-7.2,8.1-12.5,9.4c-7.2,1.8-15.2,0.8-22.3-1c-5.9-1.5-9.8-6-12.7-11c-1.7-2.7-1.2-6.6-1.9-9.7c-1.3-7.4-3.3-14.7-5.2-22
	c-0.8-3.2-0.4-6.8,0.4-10c1.6-5.4,4.6-10.7,10.1-12.8C723.1,175.5,731.2,174.5,738.5,176.4z"/>
<path class="st1" d="M667.5,178.8c8.5-3,18-1,24.6,5.2c6.9,6.5,9.2,15.7,11.4,24.6c2.4,10.4,5.8,20.6,3.1,31.3
	c-1.3,5.7-4.7,10.1-9.8,13c-8.3,4.7-19,6.7-28.2,3.7c-7.6-2.3-14.7-5.9-20-11.9c-4.5-4.9-7-11.2-7.8-17.7c-1-8.1-0.4-16.9,2.5-24.6
	c2-5.3,5.6-9.5,9.6-13.4C657.2,184.6,661.7,180.7,667.5,178.8z"/>
<path class="st0" d="M748.2,200.2c4.6-2.1,9.9,0.1,12.3,4.3c2.4,4.2,3.1,10.8-0.3,14.6c-4,4.4-11,3.7-15-0.3
	C739.5,213.9,742.1,203.4,748.2,200.2z"/>
<path class="st0" d="M689.5,208.7c3.9-1,8.5-0.3,11.7,2.1c6,4.6,5.5,15.4-1.1,19.3c-3.9,2.2-9.4,2.4-13.4,0.2
	C679,225.3,680.2,211.3,689.5,208.7z"/>
<path class="st0" d="M596.5,229.7c4.7-0.9,9.7-1.1,14.5-1.1c3.2,0.1,6.5,0.1,8.9,2.6c2.4,2.4,2.5,6.6,1.8,9.7c-1,4-4.6,6.9-8,8.8
	c-8,4.2-16.7,6.9-25.6,7.9c-3.4,0.3-7.2,0.4-10.4-1.2c-3.8-1.9-6.1-6.5-5-10.6c1-3.5,3.8-6.3,6.7-8.4
	C584.4,233.6,590.3,231,596.5,229.7z"/>
<path class="st3" d="M596.5,233.7c6-1.1,12.5-1.7,18.6-0.8c3.1,0.6,3.4,3.5,3.1,6.2c-0.5,3.6-3.8,5.8-6.7,7.4
	c-7.9,4.1-16.6,6.7-25.4,7.4c-3.5,0.2-7.5-0.2-9.2-3.7c-1.6-3.2,0.8-6.2,3.1-8.3C584.6,237.9,590.5,235.1,596.5,233.7z"/>
<path class="st0" d="M769,248.3c1.7-0.3,3.3,1.8,1.6,3.1c-4.6,1.8-9,3.5-13.1,6.5c-0.6-1-1.1-1.9-1.6-2.9
	C759.2,251.4,764.3,249.1,769,248.3z"/>
<path class="st0" d="M732,255.2c4.3,0.3,9,1,12.9,3c0.8,1.3,0.5,2.4-0.9,3.2c-5.5-1-10.3-2.9-16.1-2.2c-4.8,0.3-8.5,2.7-12.4,5.2
	c-0.5-1-1.1-2-1.4-3.1C718.4,256.5,725.8,254.8,732,255.2z"/>
<path class="st4" d="M609.9,294.1c7.6,4.2,14.4,9.7,22.1,13.9c16.4,9.2,33.9,16.7,52,22.1c19.5,5.9,40.7,7.7,61.1,8.1
	c14.8,0.2,29.3,0.2,44-1.3c11.2-1.1,22-3.3,33-5.6c-1.6,5-3.5,9.5-3.9,14.8c-1,15.3,2.1,30.1,7.8,44.2c-8.2,3.5-16.8,6.7-25.5,8.7
	c-6.3-7.7-12.7-14.8-21.6-19.7c-10.6-6-23.2-7-34.9-4.4c-5.9,1.3-11.1,3.6-16.6,5.9c-4.8-3.8-9.3-7.5-14.9-10.1
	c-9.4-4.6-20.1-5.9-30.4-5.6c-10.9,0.2-21.1,2.9-31.6,5.7c-13.5-15.8-20.7-33.8-28.2-52.9c-3.7-9.3-10-17.3-19.1-21.9
	c-6.7-3.2-14.2-3.2-21.3-1.2c-5,1.5-9.3,4.3-14.1,6.6c3.1-4,6.7-7.3,11.4-9.4C588.9,287.5,600.6,289,609.9,294.1z"/>
<path class="st2" d="M515.2,319.2c0.7,5.6,1.3,11.2,3.2,16.6c1.2,3.6,1.9,7.1,2.3,10.9c-2.7-4.8-5.2-9.4-9.3-13
	c-3.8-3.7-8.4-5.8-13.1-8C503.5,322.4,509.3,320.7,515.2,319.2z"/>
<path class="st5" d="M492,328.9c11.6,0.6,22.2,10.7,25.5,21.6c3.2,10.4,0.7,22.9,0,33.6c-1.4,21.6-1.2,43.4-1.4,65
	c-0.1,7.2,0.1,14.6-0.4,21.7c-2.9-3.1-5-6.7-7.3-10.3c1.4,0,2.8,0.1,4.1,0.1c-0.1-4.3-0.2-8.6-0.3-12.8c-3.8,0.3-7.7,0.4-11.6,0.4
	c-1.4-2.2-2.8-4.5-4.3-6.7c5.3,0.1,10.4,0.1,15.6,0.6c0-4.1,0.1-8.3,0.3-12.4c-2.6,0-5.2,0-7.8-0.1c2.6-1.5,5.2-3,7.9-4.4
	c0-4.9,0.2-9.8,0.3-14.7c-3.8,2.8-7.8,5-11.9,7.4c-2.7-2-5.4-4-8-6.1c0,4.1-0.1,8.2-0.3,12.4c2.6,1.6,5.1,3.4,7.5,5.3
	c-2.6-0.1-5.1-0.2-7.7-0.3c0,2.1,0,4.3,0,6.4c-1.6-2.3-3.2-4.6-4.8-6.8c0.8-19.3,4.2-38.5,4.6-57.8c0.2-10.1-2.8-20.1-9.2-28.1
	c-2.1-2.5-4.8-3.6-7.7-5.1C480.8,334.8,486.2,331.2,492,328.9z"/>
<path class="st6" d="M491.5,340.6c3.9-1.9,8.6,1,8.4,5.4c0,4.2-4.3,7-8.2,5.2C487.5,349.2,487,342.8,491.5,340.6z"/>
<path class="st2" d="M476.2,342.6c3.9,1.5,6.4,6.4,8.2,9.9c4.2,8.5,4.2,17.2,3.6,26.5c-1.1,14.7-2.8,29.4-4.2,44.1
	c-5.1-5-9-10.9-14.7-15.4c-4.7-3.8-10.1-6.3-16.2-5.7c-6.2,0.6-11,4.3-14.8,9.1c-6.3,8.2-10.1,17.9-11.9,28c1.2,0.2,2.5,0.4,3.7,0.6
	c2-10.1,5.9-20.2,12.8-28.1c3.9-4.3,9.3-6.9,15.2-5.6c6.5,1.4,11.7,7,16,11.8c9.9,11.2,18.3,24.2,26.2,36.9
	c6.1,9.9,12.8,19.4,18.5,29.5c2.6,4.4,1.4,10.6,4.5,14.5c3.2,1.8,7,2.1,10.3,3.7c8.8,4.2,17.7,8.5,26.7,12.2c2.9,1.1,5.7,2.4,8.4,4
	c-5.2,1.9-9.9,3-12.5,8.4c-2.9,5.9,0.1,12.1,5.2,15.6c9.4,6.3,23.4,3.7,30.8-4.7c2.1-2.6,2.6-5.8,3.5-8.9
	c21.3,8.5,42.5,16.9,64.2,24.1c15.6,5.2,32.7,10.4,49.2,10.9c16.6,0.3,32.7-7.1,46.6-15.5c6.5-3.9,12.7-7.5,18.1-12.9
	c2.7-2.5,5.2-5.7,9.3-5.6c11.9,0.3,23.8,3.1,34.3,8.7c12.2,6.2,23.1,16.8,28.5,29.5c2.3,5.3,2.1,10.2,0.4,15.7
	c-3.2-2.6-6-5.4-8.3-8.8c-3.6-5.1-6.2-10.9-11.7-14.3c-4.4-2.9-9-2.9-13.9-4.2c-2-0.4-3.1-3.3-4.3-4.8c-1.1,0.3-2.3,0.6-3.4,1
	c0.9,3.9,0.9,8.7,4.3,11.4c4.3,3.8,9.1,8.4,11,14c1.2,3.8-0.9,6.6-3.4,9.2c-3.1,2.9-6.2,5.9-9.8,8.2c-2.2,1.4-4.2,0.7-6.6,0.4
	c2.6-4.5,5.8-8.4,4.8-13.9c-1.7-8.1-8.3-14.1-14.6-18.9c-0.8,1-1.5,2-2.3,2.9c4.1,3.6,8.5,7,11.2,11.8c1.5,2.7,2.7,5.7,1.6,8.8
	c-1.6,4.4-5.3,8.2-8.1,11.9c-1.7,0-3.3,0.1-5,0.1c-0.5-10.9-6.3-19.4-13.4-27.2c-0.9,0.8-1.8,1.7-2.7,2.5c6.4,8,12.3,15.2,12,26.1
	c-2.3,2.8-4.2,6.1-6.8,8.7c-2.2,2-4.9,2.2-7.6,1.2c-1-5.1-0.1-9.8-2.2-14.7c-2.9-7.4-12.1-11.5-19.6-8.9c-6.7,2.2-9.2,8.5-15.9,11
	c-8.5,3.8-17.2,0-25.6-2.2c-17.5-4.4-35.7-6.6-53.5-9.8c-39.2-6.5-78.2-9.4-117.2-16.7c-13.1-2.4-26-5.9-38.6-10.2
	c-6.6-2.3-13-4.2-18.9-8.1c-10-6.5-17.2-15.6-24.6-24.7c-1,0.8-2,1.5-3.1,2.3c6.6,8.4,13.9,17.2,22.5,23.6c3.8,2.9,8,5,12.3,7.1
	c-1.4,9.8-2.7,19.6-3.8,29.4c-0.6,5.2-1.4,10.4-3,15.4c-6.8-5.9-13.6-11.9-20.5-17.8c-31.2-28.9-57.6-62.3-76.8-100.2
	c-6.7-13.6-12.3-27.8-18.5-41.7c4-5.6,5.7-12.3,9.4-18.1c4.8-7.7,9.9-15.3,15.9-22.1c20.9-24.2,48.8-43.7,76.4-59.6
	C467.5,341.5,472.2,341.5,476.2,342.6z"/>
<path class="st5" d="M496.6,341.3c-1.6,2.1-3.4,2.8-5.7,3.8c-0.5-0.5-1-1-1.6-1.3C491.8,341.9,493.3,341.1,496.6,341.3z"/>
<path class="st5" d="M496.9,341.3c0.7,1.5,1.9,3,2.1,4.7c-0.4,3-3,5-6,4.4c-2.6-0.8-2.9-2.7-3.9-5c1.4,1.4,2.8,2.9,4.4,4.2
	c-0.4-1.4-1.1-2.8-1.4-4.2l2,0.3l-1,1.5c0.8,0.3,1.6,0.7,2.4,1c1.1-0.9,2.3-1.7,3.4-2.6c-1.4,0.3-2.7,0.6-4.1,1
	C495.4,344.8,496.1,343.1,496.9,341.3z"/>
<path class="st6" d="M513.4,349.1c0.3,4.5,0.7,9,1.1,13.6c-1.3,0.5-2.6,0.9-3.8,1.4c0.1,2,0.3,4,0.5,6c1.3,0.2,2.6,0.3,3.9,0.5
	c0.3,3.7,0.6,7.4,0.9,11.1c-6.7-2.2-13.4-4.3-20.3-5.9c-0.4-5.7-0.8-11.5-1.4-17.2C500.8,355.8,507.2,352.5,513.4,349.1z"/>
<path class="st5" d="M507.1,365.8c0.1,1,0.2,2.1,0.2,3.1c-1.3-0.4-2.6-0.8-3.9-1.3C504.7,367.1,505.9,366.5,507.1,365.8z"/>
<path class="st7" d="M703,371.1c13.8,4,23.4,13.4,32.4,24c1-0.7,2.1-1.4,3.1-2.2c-2.5-3.2-5.2-6.2-8-9.2c12.4-6.3,26.4-8.6,39.8-4.2
	c10.9,3.7,18.9,11.7,26,20.4c-14.1,3.6-28.2,6.4-42.7,7.7c-16.7,1.5-34.2,0.9-50.4-3.9c-18.6-5.2-36.3-15.5-49.3-29.9
	C669.1,369.1,687.2,366.8,703,371.1z"/>
<path class="st6" d="M494.8,384.3c1.9,0.1,3.9,0.3,5.9,0.4c-0.6,3.7-1,7.4-0.9,11.1c2.3-2.4,1.5-5.8,1.7-8.8
	c1.8,0.2,3.5,0.3,5.2,0.4c-0.3,2.7-0.5,5.4-0.7,8.1l1.6,0c0.3-3.4,0.5-6.9,0.2-10.3c2.2,0.2,4.4,0.4,6.6,0.5
	c-0.5,7.4-1.1,14.7-1.5,22.1c-6.5-0.8-13.2-1.2-19.7-1.4C493.8,399.1,494.3,391.7,494.8,384.3z"/>
<path class="st6" d="M512.7,410.6c-0.2,4.9-0.3,9.8-0.3,14.7c-2.7,1.3-5.3,2.8-7.9,4.4c2.6,0.1,5.2,0.1,7.8,0.1
	c-0.2,4.1-0.2,8.3-0.3,12.4c-5.2-0.5-10.4-0.5-15.6-0.6c-1.3-2-2.6-3.9-3.9-5.8c0-2.1,0-4.3,0-6.4c2.6,0.1,5.1,0.2,7.7,0.3
	c-2.4-1.9-4.9-3.7-7.5-5.3c0.1-4.1,0.2-8.2,0.3-12.4c2.6,2.1,5.3,4.1,8,6.1C504.9,415.6,508.9,413.3,512.7,410.6z"/>
<path class="st2" d="M810.8,438.6c1.7,30.4,0.9,61.3-4,91.3c-8.8-2.5-18.3-4.3-27.5-3.6c8-24.6,13.9-49,13-75
	C798.5,447.3,804.5,442.7,810.8,438.6z"/>
<path class="st2" d="M814.9,440c5.1,2.8,9.6,6.3,14.4,9.6c12.1,8.7,23.6,18.3,34.5,28.5c6.9,6.5,13.5,13.3,19.2,20.8
	c4.5,5.8,9.4,11.7,12.8,18.2c2.3,4.4,3.1,9.3,5.3,13.7c1.9,3.7,7,5.3,10.2,7.8c5.1,3.8,10.1,8,14,13c4.9,6.4,5.4,15.7,5.8,23.5
	c0,5.6,0.3,11.5-5,14.8c-0.8-0.9-1.5-1.8-2.3-2.8c1.4-4.4,2.1-8.5,2.3-13.2c-1.2,0-2.5,0-3.7,0c-0.6,6.6-1.4,12.6-6.1,17.5
	c-1.8,2.4-4.2,2.4-7,2.9c1.2-5.7,3.5-11,4.4-16.7c-1.2-0.1-2.5-0.3-3.7-0.4c-1.2,5.2-2.8,10.4-4.5,15.5c-1.7,4-7.7,4.8-9.6,0.4
	c1.3-4.8,3.7-9.3,4.9-14.2c-1.2-0.3-2.4-0.6-3.6-0.8c-1.9,4.8-3.4,9.8-5.6,14.4c-1.7,2-5,3.6-7.6,2.5c-0.4-5.9,2.6-11.5,2.3-17.2
	c-0.1-2.1-1.6-3.1-2.8-4.6c-2.5,2-5.9,3.8-7.7,6.5c-1.8,3.6,2.5,8.9,0.5,12.5c-1.1,2.2-4.7,2.8-5.9,0.3c-2-3.3-4.5-6.1-6.8-9.2
	c-1.8-2.6,1.3-6,2.5-8.3c4.4-6.1,4.1-14.9-0.6-20.7c-4.5-5.8-11.7-9.4-18-13c-5.3-2.9-10.1-6.6-15.3-9.6
	c-6.5-3.9-13.4-7.1-20.3-10.2C815.6,494.5,815.9,467.3,814.9,440z"/>
<path class="st8" d="M359,446.5c6.8,13.9,12,28.6,19.2,42.4c21.8,42.3,53,80,89.4,110.6c3.2,2.8,6.2,5.9,9.7,8.3
	c9.5,6.6,19.1,13.1,28.9,19.1c4.4,2.8,9.2,4.8,13.8,7.2c40.9,20.8,86.1,33.1,132,34.5c13.7,0.3,27.6,0.8,41.2-0.4
	c13.7-1.7,27.4-3.5,41-6c12.2-2.1,24.3-5.9,36-9.9c2.4-0.8,4.8-1.4,7.2-2c-2.6,5.9-6.2,11-9.7,16.3c-11.2,16.5-24.3,31.6-38.6,45.5
	c-7,6.8-14.6,12.8-22.6,18.4c-1.2,0.8-2.4,1.6-3.7,2.1c-10.4,2.2-20.8,5-30.8,8.6c-23.6,9.1-47.2,21-66.9,37c-3.8,3-6.4,6.4-11,7.9
	c-12.4,4.5-25.1,8.2-38.1,10.6c-15,2.7-30.8,1.8-46,1.6c-21.1-0.1-41.8-6.5-60.5-15.7c-15.2-7.6-29.4-16.4-41.5-28.4
	c-5.7-5.7-11.5-10.9-18.9-14.2c-3.9-22.3-12.5-44.2-27.2-61.6c-8.8-10.4-19.3-17.1-30.2-24.8c-2.7-1.9-5.7-2.8-8.9-3.8
	c-2.4-15.2-2.9-30.3-2.7-45.6c0.2-14.8,0.7-29.4,3-44c3.9-25.2,8.7-51,18-74.9c4.1-10.2,8.4-20.3,12.6-30.4
	C355,451.5,356.6,449,359,446.5z"/>
<path class="st6" d="M500.6,448.2c3.9-0.1,7.7-0.2,11.6-0.4c0.1,4.3,0.2,8.5,0.3,12.8c-1.4-0.1-2.8-0.1-4.1-0.1
	C505.7,456.4,503.1,452.3,500.6,448.2z"/>
<path class="st5" d="M788.3,454.2c0.9,22.8-4.9,45.9-11.6,67.5c-1.1,3.2-1.8,7.2-4.3,9.7c-4,4.2-9,7.8-14,10.9
	c-3.3-1.1-6.7-2.1-9.9-3.4c-1.2,3.7-2.2,7.5-3.6,11.1l-2.2,1.1c1.1-5.2,2.8-10.1,4.2-15.1c5.2-18,10.1-36.5,13.4-54.9
	c0.6-3.2,0.9-6.7,1.9-9.8c0.4-1.1,1.9-1.7,2.7-2.4c-0.2,2.1-0.5,4.2-0.7,6.2c2.1,0.3,4.2,0.6,6.4,0.9c0-3.8,0.3-7.5,1.4-11.2
	c1.5,2.9,0.3,5.9,0,9c1.7,0.2,3.5,0.5,5.2,0.7c0.2-2.7,0.5-5.4,0.8-8l1.5,0.1c-0.3,3.5-0.8,6.9-1.6,10.2c2,0.2,3.9,0.5,5.9,0.7
	c0.9-7.4,1.8-14.7,2.7-22.1C787.1,455,787.7,454.6,788.3,454.2z"/>
<path class="st6" d="M786.5,455.3c-0.9,7.4-1.8,14.7-2.7,22.1c-2-0.2-3.9-0.5-5.9-0.7c0.8-3.4,1.2-6.8,1.6-10.2l-1.5-0.1
	c-0.3,2.7-0.6,5.4-0.8,8c-1.7-0.2-3.5-0.5-5.2-0.7c0.3-3,1.5-6.1,0-9c-1,3.7-1.3,7.4-1.4,11.2c-2.1-0.3-4.2-0.6-6.4-0.9
	c0.2-2.1,0.5-4.2,0.7-6.2C772.3,464.5,779.3,459.8,786.5,455.3z"/>
<path class="st6" d="M764.2,476.4c5.8,3.9,11.7,7.9,17.9,11.2c-1.2,5.6-2.4,11.3-3.4,17c-7,0.9-14.1,2.2-21,3.8
	c1-4.4,1.9-8.9,2.7-13.3c1.4-0.1,2.7-0.3,4.1-0.4c0.4-1.9,0.8-3.8,1.2-5.8c-1.2-0.6-2.5-1.1-3.7-1.6
	C762.8,483.7,763.5,480.1,764.2,476.4z"/>
<path class="st5" d="M769.2,491.2c1.1,0.6,2.2,1.3,3.3,2c-1.4,0.3-2.8,0.6-4.3,0.8C768.5,493.1,768.8,492.2,769.2,491.2z"/>
<path class="st0" d="M489.2,507.6c3.9,1.3,8.4,4,11.4,6.8c2.4,2.3,3.3,5.8,1.6,8.8c-1.9,3.3-6.1,5.2-9.7,6.1
	c-6.9,1.7-14.5,1-21.5,0.5c-4.4-0.5-9.8-1.4-11.7-6.1c-1.7-4.7,1.7-9.4,5.4-12c3.6-2.6,8.2-2,12.3-2.7
	C481.1,508.4,485.1,506.2,489.2,507.6z"/>
<path class="st3" d="M489.2,511.7c3.4,1.6,7.2,3.6,9.5,6.6c1.7,2.3-1,4.4-2.9,5.5c-6.2,3.5-14.9,2.6-21.8,2.3
	c-3.2-0.3-7.8-0.5-10.3-2.8c-2.4-2.4,0.3-5.8,2.2-7.6c3.1-3,8.1-2.2,12.1-3.1C481.7,512.3,485.7,510,489.2,511.7z"/>
<path class="st6" d="M768.5,511.6c4.7-1.2,8.4,3.2,6.9,7.7c-1.3,4.2-6.8,5.2-9.7,2.1C762.7,518.1,764.2,512.7,768.5,511.6z"/>
<path class="st5" d="M770,512.6c3.5,0.2,3.8,2.9,5.7,5.5c-2.7-2.7-5.8-3.3-9.3-3.9l3,2.1c-0.3,1.1-0.7,2.2-1,3.3
	c1.8,0.1,3.6,0.2,5.4,0.3c-0.7,0.7-1.4,1.3-2.2,1.8c-2.7,1-4.3-0.8-6.4-2l2.5-1l-0.1-0.7l-1.1-0.2l-1.5-0.4
	C765.4,514.6,767,512.7,770,512.6z"/>
<path class="st5" d="M772.1,516.9c0.4,1,0.1,1.8-1,2.3C769.5,518.5,770.4,515.6,772.1,516.9z"/>
<path class="st5" d="M773.7,517.7c0.9,0.8,0.9,1.5,0.1,2.2C772.9,519.1,772.9,518.4,773.7,517.7z"/>
<path class="st3" d="M570.5,522.7c3.6-0.6,6.9-1.1,10.4,0.4c3.4,1.5,7.4,2.5,10.4,4.8c0,2.9-0.5,5.7-2.5,7.9
	c-5.5,5.9-14.4,8.2-22.1,5.5c-3.4-1.2-6.5-3.8-7.6-7.4c-0.9-3,0.5-6,2.8-7.9C564.3,524,567.6,523.2,570.5,522.7z"/>
<path class="st6" d="M748.5,538.9c3.3,1.2,6.6,2.3,9.9,3.4c-4.5,2.6-8.9,5.5-13.6,7.7C746.3,546.4,747.3,542.6,748.5,538.9z"/>
<path class="st5" d="M492.3,561.2c-0.3,2.1-0.5,4.2-0.8,6.2c2.5,1.9,4.9,3.9,7.2,6c-2.6-0.3-5.1-0.6-7.7-1
	c-0.4,4.1-0.8,8.2-1.3,12.2c6.6,0.6,13.1,1.2,19.7,2.2c0.4-4.1,0.8-8.2,1.3-12.2c-2.6-0.2-5.2-0.4-7.8-0.7c2.7-1.3,5.4-2.6,8.2-3.6
	c0.1-1,0.2-2,0.3-3c1.2,0.4,2.4,0.7,3.6,1c-0.5,10.5-1.9,21-3.7,31.3c-1.4,7.6-2.9,15.1-5.4,22.5c-8.5-5-16.7-10.7-24.8-16.3
	c3.5-9.8,3.6-19.2,5.1-29.4c0.8-5,1.1-10.1,2.2-15C488.5,559.2,491.3,561.1,492.3,561.2z"/>
<path class="st6" d="M492.3,561.2c6.3,2.2,12.6,4.2,19.1,6c-0.1,1-0.2,2-0.3,3c-2.8,1.1-5.5,2.3-8.2,3.6c2.6,0.3,5.2,0.5,7.8,0.7
	c-0.5,4.1-0.9,8.2-1.3,12.2c-6.5-1-13.1-1.6-19.7-2.2c0.5-4.1,1-8.2,1.3-12.2c2.6,0.4,5.1,0.7,7.7,1c-2.3-2.1-4.7-4.1-7.2-6
	C491.8,565.3,492,563.2,492.3,561.2z"/>
<path class="st2" d="M519.1,569.4c4,0.5,8,1.7,12,2.4c38.3,7.5,76.4,10.3,114.7,16.4c16.5,2.7,33.1,5.2,49.5,8.5
	c8.7,1.6,17,4.7,25.8,6.2c-6.8,18.8-14.5,37.2-22.6,55.5c-0.8,1.7-1.7,3.7-3.1,4.9c-1.7,1.2-4.3,1.1-6.3,1.3
	c-13.7,0.6-27.4,0.4-41-0.1c-45.1-2-89.1-14.6-129.1-35.4c-2.8-1.7-6.9-2.7-9-5.2c0.3-2.7,1.2-5.4,1.9-8
	C515.7,600.7,517.6,585.1,519.1,569.4z"/>
<path class="st1" d="M882.6,578.8c-0.4,3.2-1.1,6.3-1.8,9.5c-0.6-2-1.3-4.1-1.6-6.2C879.5,580.7,881.6,579.7,882.6,578.8z"/>
<path class="st3" d="M753.4,589.5c-0.6,1.9-2.7,1.7-2.7-0.3C751.6,588.7,752.5,588.8,753.4,589.5z"/>
<path class="st5" d="M753.4,589.5l0.7,0.5c-7.5,20.3-13.7,41-22,61.1c-1.1,2.6-2,5.8-3.9,8c-9,2.1-18.6,2.9-27.8,4.3
	c7.6-16.4,14.5-33.1,20.9-50c1.3-3.4,2.5-6.9,4-10.2l1.9-0.5c-0.9,2.6-1.9,5.2-2.8,7.9c2,0.8,4.1,1.5,6.1,2.3
	c0.9-3.3,1.4-8.3,4.5-10.4c-0.6,2.9-1.7,5.7-2.9,8.5c1.7,0.6,3.4,1.2,5.1,1.8c1-2.9,1.2-6.2,4-8.1c-0.8,3.7-2.1,7.1-3.9,10.4
	c1.9,0.7,3.8,1.4,5.6,2c2.5-6.9,4.9-13.9,7.5-20.8c-2.5-0.9-5.1-1.8-7.6-2.5c2.2-2.3,4.9-3.6,7.9-4.6
	C750.7,591.2,752.8,591.4,753.4,589.5z"/>
<path class="st6" d="M488.8,590.5c6.5,1.3,13,2.4,19.5,3.2c-0.8,4.2-1.4,8.4-2.1,12.7c-6.4-1.4-12.9-2.4-19.4-3.4
	c0.5-3.1,1.1-6.2,1.6-9.3C488.5,592.5,488.6,591.5,488.8,590.5z"/>
<path class="st2" d="M758.1,591.1c2.6,1.5,4.5,3.5,5.4,6.4c1.7,4.5,0.5,9.6,2.1,14c1.8,3.1,7.2,3.4,10.3,2.4
	c5.5-2.1,6.6-7.1,10.4-10.6c2.5-1,5.8-0.7,8.5-0.8c-1.9,12.4-6.4,23.5-11.2,35c-1.1,2.4-2,5.2-3.6,7.3c-1.6,0.9-3.4,1.4-5.2,2
	c-13.4,4.3-27.4,9.4-41.3,11.5c4.4-11.3,8.9-22.6,12.8-34.1C750.2,613.2,753.4,601.8,758.1,591.1z"/>
<path class="st6" d="M742.8,593.8c2.6,0.8,5.1,1.7,7.6,2.5c-2.6,6.9-5,13.9-7.5,20.8c-1.9-0.7-3.8-1.4-5.6-2
	c1.7-3.3,3.1-6.8,3.9-10.4c-2.8,1.8-3,5.2-4,8.1c-1.7-0.6-3.4-1.2-5.1-1.8c1.2-2.7,2.2-5.5,2.9-8.5c-3.1,2.1-3.6,7.1-4.5,10.4
	c-2-0.8-4.1-1.6-6.1-2.3c0.9-2.6,1.9-5.2,2.8-7.9C733.9,601.1,738,598.8,742.8,593.8z"/>
<path class="st6" d="M723.9,612.5c5.2,4.7,10.2,9.8,15.7,14c-2.2,5.3-4.2,10.8-6.4,16.1c-7-0.5-14.2-0.2-21.3,0.1
	c1.8-4.2,3.4-8.5,5-12.7c1.3,0.2,2.7,0.3,4,0.5c0.7-1.8,1.4-3.7,2.1-5.5c-1.1-0.8-2.2-1.7-3.3-2.5
	C721.2,619.2,722.5,615.9,723.9,612.5z"/>
<path class="st5" d="M726.2,627.8c1,0.8,1.9,1.7,2.8,2.6c-1.4,0-2.8,0.1-4.2,0.1C725.3,629.6,725.8,628.7,726.2,627.8z"/>
<path class="st6" d="M721.5,647.8c2.6-0.5,5.3,0.9,6.3,3.3c1.3,3.2-0.4,7.2-3.8,8.1c-3.4,0.9-6.8-1.3-7.3-4.8
	C716.3,651.4,718.4,648.4,721.5,647.8z"/>
<path class="st5" d="M726.2,650.8c1.9,2.5,0.8,4.9-1,7c0.3-1.6,0.7-3.3,1.1-4.9c-2.3-1-4.6-2.1-6.8-3.3
	C722.2,649,724.3,648.5,726.2,650.8z"/>
<path class="st5" d="M719.2,649.6c1.1,1.1,2.2,2.2,3.4,3.2c-1.1,0.4-2.2,0.8-3.2,1.5c2,1.1,4,2.2,5.9,3.4c-2.8,0.8-6.3,0.5-7.1-2.8
	C717.4,652.9,718.5,651.5,719.2,649.6z"/>
<path class="st5" d="M723.2,653.4c2.3-1.5,1.9,2.9-0.1,2.1C722.6,654.9,722.6,654.2,723.2,653.4z"/>
<path class="st2" d="M321.3,653.4c3.2,0.6,6.1,1.7,8.7,3.6c10.5,7.4,20.7,14,29,24c13.8,16.4,22.4,37.6,26,58.7
	c-8.5,1.9-16,5.2-23.1,10.3c-9.7,7-18.2,15-26.3,23.7c-3.4,3.7-8.2,6.6-7.1,12.3c2.4,12-0.5,23-4.2,34.3
	c-4.5,12.8-10.4,25.2-17,37.1c-2.1,3.9-3.2,8-0.8,12.1c3.6,5.9,8.9,12.3,9.9,19.5c0.4,3.6-0.3,8.7-4.1,10.4
	c-4.2,1.7-9.8,0.8-14.3,0.8c-34-1.2-68.3,7.7-101.5,14.2c-20.5,3.8-40.5,9.1-60.5,14.6c-7.8,2.1-14.5,6-21.8,9.3
	c-2.9,1.4-5.9,1.9-9,2.3c0.6-3.8,3-6.4,4.5-9.8c1.4-3.5-0.6-6.9-3.5-8.9c-5.5-3.6-11.9,0.3-16.8-4.6c2.4-4,7.5-8.3,7.1-13.3
	c0-4.1-3-6.7-6.7-7.9c-6.3-2.4-13.3-1.1-18.5-4.9c5.3-2.3,10.9-2.5,16.7-2.3c15.3,0.5,30.7,1.2,46,1.5c36.5,0.2,73.3,0.3,109.2-6.8
	c8.7-1.6,14.4-7,21.4-11.9c4.4-3.4,10-7.7,11.9-13.1c1.8-4.9-1.9-10.3-3.1-15.1c-2.8-10.6-4.1-21.6-4.6-32.5c-0.4-6,0.7-12,0.4-18
	c-0.3-7.4-5.6-12.4-5.6-20c0-6.3,1.3-13.9,5.6-18.8c1.9-2.3,4-4.4,4.5-7.5c0.7-4.6,0.9-9.2,2.4-13.7c5.1-15.3,12.1-29.7,20.3-43.6
	c1.1-1.8,2.2-3.4,3.5-5.1c3.9,5.5,4.6,13.8,11.4,16.4c6,1.9,13,1.4,18.9-0.4c6.5-2.1,13.2-7,14-14.3c1.2-9-5.3-17.6-13.4-21
	c-5.6-2.4-11-1.9-17-2c1.6-2.7,3.2-5.3,5.4-7.7C319.9,654.7,320.6,654,321.3,653.4z"/>
<path class="st3" d="M327,667.8c6.9,1.8,12.8,7.9,13.5,15.1c0.4,4-1.6,7.5-4.6,9.9c-5.8,4.8-14.6,5.9-21.8,4.6
	c-3.5-0.7-5.1-3.2-6.4-6.3c-1.5-3.8-3.3-7.3-5.9-10.5c2.9-4.5,5.7-9,8.9-13.2C316.1,666.8,321.8,666.5,327,667.8z"/>
<path class="st2" d="M696.6,738.1c-1.9,2.5-4.6,4.7-6.1,7.5c-2.5,5.9-2,13.5,2.7,18.2c5.2,5.4,12.5,6.8,19.7,6.9
	c5.1,0,11.2,0.4,15.9-1.6c3-1.2,4.5-3.6,6.4-6.1c7.3,6.9,14,14.4,21.2,21.5c2.9,3,6.2,6.2,8.2,9.8c2.2,4,2,9.4,2.1,13.8
	c0,12.7,0.7,25.6,3.1,38c1.9,9.7,5.1,19,8.9,28c2.5,5.7,4,11.2,7.8,16.2c4.1,5.5,9.2,10.4,14.9,14.1c6.5,4.3,14.7,5.7,22.2,7.8
	c13.1,3.7,25.9,4.9,39.2,7.1c33.7,5.6,68,9,102,11.9c12.1,1,25.9-1,36.7,5.8c-6,2.3-12.2,2.5-18.5,3.4c-4.5,0.8-9,2.9-10.2,7.7
	c-1.4,6.2,3.5,11.2,5.4,17c-5,1.2-10.1,0.9-15.2,1.5c-4,0.7-7.9,3.1-8.3,7.5c-0.2,4.8,2.5,9.7,3.4,14.4c-2.4,0.1-4.6,0.3-6.8-0.8
	c-6.2-2.7-12.1-7.5-17.7-11.3c-3.8-2.5-7.9-4.1-12.1-5.8c-26.4-11.1-53.2-19.3-80.6-27.3c-28.5-8.4-56.7-18.9-86.5-22.3
	c-6.3-0.8-12.8-0.2-19-1.4c-3.2-0.7-6.4-1.9-7.9-5c-1.9-4.1-1.4-9.3,0.7-13.2c2.4-4.5,5.2-8.7,8.4-12.7c1.8-2.3,3.2-4.5,3-7.6
	c-0.5-2.9-3.4-5.2-5.5-7.1c-4.7-3.9-8.8-8.6-12.8-13.3c-8.5-10.3-14.4-23.2-19.5-35.5c-1.6-3.7-2.4-8.1-4.7-11.4
	c-1.5-2.1-3.8-2.3-6.2-2.6c-21-2-40.9-7.2-61.1-13.1c-9.8-3.1-19.4-6.9-28.3-11.8c18.6-16.8,41.8-29.3,64.8-38.8
	C676.2,743.3,686.3,740.3,696.6,738.1z"/>
<path class="st3" d="M707.8,738.8c5.8,4.2,10.7,9.5,16.3,14c2.5,2.3,5.9,4.4,7.7,7.3c-0.9,3.7-3.9,5.8-7.5,6.2
	c-5.4,0.7-11.2,0.6-16.6,0c-5.6-0.7-11.8-3.5-14-9.1c-1.5-4.2-0.9-9.9,2.6-13C699.4,741.5,703.8,739.9,707.8,738.8z"/>
<path class="st0" d="M238,895l0.9,2.1c-1.2,1.7-2.9,1.5-4.8,1.9c-43.7,5.7-86.7,8-130.1,16.2c-2.4,0.6-2-1.8-2.7-3.3
	c41-8.3,85.1-10.7,126.7-16C231.2,895.5,234.7,894.8,238,895z"/>
<path class="st0" d="M817.2,920.7c30.7,7.7,60.8,16.1,91.8,22.2c17.5,3.4,34.6,6.5,51.8,11.5c1.8,0.6,3.2,0.9,4,2.7
	c-0.5,0.7-1.1,1.3-1.8,1.8c-3.1-0.5-6.2-1.6-9.2-2.4c-17.8-4.8-36.7-7.9-54.7-11.6c-25.4-5.3-50.1-12.1-75.3-18.4
	c-3.4-0.9-7.1-1.5-10.4-2.9c-0.6-0.9-0.7-1.6-0.3-2.3C814.2,919.5,815.6,920.5,817.2,920.7z"/>
</svg>
